<?xml version="1.0" encoding="UTF-8"?>
<svg version="1.1" xmlns="http://www.w3.org/2000/svg" width="500" height="121">
<path d="M0 0 C8.25 0 16.5 0 25 0 C29.54716981 11.36792453 29.54716981 11.36792453 30.75 15.4375 C30.99234375 16.24058594 31.2346875 17.04367188 31.484375 17.87109375 C32 20 32 20 32 23 C32.66 23 33.32 23 34 23 C34.103125 21.80375 34.20625 20.6075 34.3125 19.375 C35.02649946 12.812505 36.56277571 6.4362653 38 0 C43.94 0 49.88 0 56 0 C55.0112146 6.17410602 53.96809014 12.31157343 52.67578125 18.4296875 C52.45212891 19.491875 52.22847656 20.5540625 51.99804688 21.6484375 C51.53574276 23.82429621 51.06684334 25.9987627 50.59179688 28.171875 C50.37201172 29.22632812 50.15222656 30.28078125 49.92578125 31.3671875 C49.62281128 32.77653564 49.62281128 32.77653564 49.3137207 34.21435547 C48.85937912 37.07380925 48.85937912 37.07380925 49.55541992 40.17626953 C50.19242814 44.22219872 48.27612927 45.68335449 46 49 C44.4804869 53.46356973 42.96806218 58.55513601 45 63 C45.94875 63.61875 46.8975 64.2375 47.875 64.875 C51.79005385 67.53723662 52.69912691 69.48520515 54 74 C53.77260399 78.39632278 52.8169984 82.00260352 51 86 C48.46877793 84.73438896 48.45435756 83.89148658 47.4375 81.3125 C45.05640275 76.36232414 41.19769026 72.87572633 36 71 C33.24812181 71.74970153 33.24812181 71.74970153 31 73 C30.62875 71.948125 30.2575 70.89625 29.875 69.8125 C28.63789332 66.83029598 27.4392143 65.35670822 24.8125 63.5 C22 61 22 61 21.5625 57.375 C22 54 22 54 23 51 C22.24423619 48.22380045 22.24423619 48.22380045 21.0625 45.3125 C20.68222656 44.31863281 20.30195312 43.32476562 19.91015625 42.30078125 C19.60980469 41.54152344 19.30945313 40.78226563 19 40 C18.67 40 18.34 40 18 40 C16.02 48.91 14.04 57.82 12 67 C6.06 67 0.12 67 -6 67 C-4.17347574 54.94694702 -1.42400476 43.11957027 1.26464844 31.23510742 C1.88149382 28.50278653 2.49187555 25.76908193 3.1015625 23.03515625 C3.2921524 22.20178238 3.48274231 21.36840851 3.67910767 20.50978088 C5.47743795 13.65143815 5.47743795 13.65143815 3.90625 7.05078125 C3.4421875 6.47714844 2.978125 5.90351563 2.5 5.3125 C0 2.18055556 0 2.18055556 0 0 Z " fill="#1B90C5" transform="translate(78,26)"/>
<path d="M0 0 C8.25 0 16.5 0 25 0 C26.99652203 4.65855139 28.7178521 8.95252869 30.1875 13.75 C30.53167969 14.85859375 30.87585938 15.9671875 31.23046875 17.109375 C32 20 32 20 32 23 C32.66 23 33.32 23 34 23 C34.185625 21.0509375 34.185625 21.0509375 34.375 19.0625 C34.90528422 14.34969232 35.46172836 9.50422023 37 5 C37.66 4.67 38.32 4.34 39 4 C41.51795875 6.76463493 43.01665717 8.50462582 42.97412109 12.32324219 C42.49641169 15.21113892 41.87260043 18.02902469 41.1875 20.875 C40.95119873 21.94041016 40.71489746 23.00582031 40.47143555 24.10351562 C39.94998109 26.44847037 39.41827986 28.79116313 38.87792969 31.13183594 C37.92708497 35.32126412 37.04026783 39.5210646 36.1640625 43.7265625 C35.70101997 45.92720963 35.2365134 48.12754057 34.77114868 50.32769775 C34.46535691 51.77602231 34.16129997 53.22471423 33.85897827 54.67376709 C33.43146222 56.71153805 32.99270489 58.74656192 32.55078125 60.78125 C32.29981689 61.95751953 32.04885254 63.13378906 31.7902832 64.34570312 C31.52948975 65.22162109 31.26869629 66.09753906 31 67 C30.01 67.495 30.01 67.495 29 68 C25.7 58.76 22.4 49.52 19 40 C18.67 40 18.34 40 18 40 C16.02 48.91 14.04 57.82 12 67 C6.06 67 0.12 67 -6 67 C-5.29445836 63.41609823 -4.58581255 59.83285785 -3.875 56.25 C-3.65634277 55.14285645 -3.43768555 54.03571289 -3.21240234 52.89501953 C-1.97726044 46.69680566 -0.68389819 40.51768259 0.703125 34.3515625 C1.12053955 32.47936035 1.12053955 32.47936035 1.54638672 30.56933594 C2.08996479 28.14581698 2.64335142 25.72447278 3.20751953 23.30566406 C5.04376711 15.15051012 5.04376711 15.15051012 4 7 C2.03490091 4.2299003 2.03490091 4.2299003 0 2 C0 1.34 0 0.68 0 0 Z " fill="#010202" transform="translate(40,26)"/>
<path d="M0 0 C1.37207031 1.49047852 1.37207031 1.49047852 2.578125 3.37890625 C3.23554688 4.38920898 3.23554688 4.38920898 3.90625 5.41992188 C4.3496875 6.12697266 4.793125 6.83402344 5.25 7.5625 C5.70890625 8.27341797 6.1678125 8.98433594 6.640625 9.71679688 C7.77093497 11.47113214 8.88687103 13.23471341 10 15 C9.98839844 14.00097656 9.97679687 13.00195312 9.96484375 11.97265625 C9.95582031 10.68230469 9.94679687 9.39195313 9.9375 8.0625 C9.92589844 6.77472656 9.91429687 5.48695312 9.90234375 4.16015625 C10 1 10 1 11 0 C13.35313555 -0.07271741 15.70833668 -0.08370868 18.0625 -0.0625 C19.35285156 -0.05347656 20.64320313 -0.04445312 21.97265625 -0.03515625 C22.97167969 -0.02355469 23.97070312 -0.01195312 25 0 C25.89530673 4.59433715 26.12881337 8.95134889 26.1328125 13.62890625 C26.13376923 14.34102768 26.13472595 15.05314911 26.13571167 15.78684998 C26.13638858 17.28360076 26.13456863 18.78035456 26.13037109 20.27709961 C26.12500787 22.55914938 26.13033678 24.84100308 26.13671875 27.12304688 C26.13605804 28.58333376 26.13477701 30.04362053 26.1328125 31.50390625 C26.13168457 32.82205322 26.13055664 34.1402002 26.12939453 35.49829102 C26.01929739 38.47776903 25.6990796 41.11169746 25 44 C17.19282196 46.60239268 17.19282196 46.60239268 13 45 C10.97686367 42.90332265 9.41355157 40.55201009 7.8125 38.125 C7.15604492 37.16787109 7.15604492 37.16787109 6.48632812 36.19140625 C5.30984033 34.4706806 4.15389903 32.7359543 3 31 C2.34 30.01 1.68 29.02 1 28 C0.67 33.94 0.34 39.88 0 46 C-4.95 46 -9.9 46 -15 46 C-15 31.48 -15 16.96 -15 2 C-4 -1 -4 -1 0 0 Z " fill="#010101" transform="translate(156,41)"/>
<path d="M0 0 C4.04042149 2.98675922 6.30771051 6.12200586 7.5625 11 C8.68727239 20.16220847 7.70232474 28.55010414 2.01953125 36.03125 C-3.35564495 41.83693231 -8.95878277 45.15836984 -16.9375 45.5 C-23.55440269 45.23385551 -28.1965198 43.29995337 -32.8125 38.5625 C-37.4137215 31.30672763 -37.63485335 23.47902829 -35.8203125 15.17578125 C-33.34609537 8.02682646 -29.02444858 3.35228132 -22.3046875 -0.09375 C-15.15761775 -2.86035765 -6.89524887 -3.79366852 0 0 Z M-20.4375 17 C-22.38413632 19.5660206 -22.44520736 20.81116974 -22.3125 24.0625 C-21.65568858 27.03793258 -21.65568858 27.03793258 -19.6875 28.9375 C-17.48485793 30.17347131 -17.48485793 30.17347131 -15 30 C-11.53778896 28.64889325 -9.78075885 26.86398304 -7.4375 24 C-6.40470927 21.17703867 -6.28943989 19.66627048 -6.9375 16.75 C-8.44127424 14.66897467 -8.44127424 14.66897467 -11.75 14.0625 C-15.83374688 13.99328395 -17.32732683 14.42299937 -20.4375 17 Z " fill="#010101" transform="translate(334.4375,41)"/>
<path d="M0 0 C5.42297211 5.55854641 5.32011402 9.96804985 5.3046875 17.50390625 C4.90606436 22.07785125 3.5228229 24.25645634 1 28 C1 31.8613488 3.64454858 34.11267245 6 37 C6 37.66 6 38.32 6 39 C4.1015625 40.7265625 4.1015625 40.7265625 1.625 42.625 C0.81289063 43.25664063 0.00078125 43.88828125 -0.8359375 44.5390625 C-3 46 -3 46 -5 46 C-7.09391886 43.20810819 -8.99914778 40.31307026 -10.9296875 37.40625 C-11.61289062 36.6121875 -12.29609375 35.818125 -13 35 C-14.32 35 -15.64 35 -17 35 C-17 37.64 -17 40.28 -17 43 C-21.76307437 43.95261487 -26.1666528 44.08333357 -31 44 C-31.8071867 35.5533677 -32.10785854 27.16823852 -32.125 18.6875 C-32.12951172 17.76952637 -32.13402344 16.85155273 -32.13867188 15.90576172 C-32.12630589 10.1937053 -31.7277507 4.66605903 -31 -1 C-8.94017094 -4.47008547 -8.94017094 -4.47008547 0 0 Z M-17 11 C-17 14.63 -17 18.26 -17 22 C-12.83276672 21.55357925 -12.83276672 21.55357925 -9.125 19.75 C-7.58923551 17.36103301 -7.64293262 15.78512559 -8 13 C-9.95633975 10.58878141 -9.95633975 10.58878141 -13.625 10.875 C-15.295625 10.936875 -15.295625 10.936875 -17 11 Z " fill="#010101" transform="translate(290,44)"/>
<path d="M0 0 C1 1 1 1 1.1328125 3.21484375 C1.13023437 4.11332031 1.12765625 5.01179688 1.125 5.9375 C1.12886719 7.28134766 1.12886719 7.28134766 1.1328125 8.65234375 C1 11 1 11 0 13 C-8.415 13.495 -8.415 13.495 -17 14 C-17 14.99 -17 15.98 -17 17 C-8.585 16.505 -8.585 16.505 0 16 C0 20.29 0 24.58 0 29 C-8.415 29.495 -8.415 29.495 -17 30 C-17 30.99 -17 31.98 -17 33 C-15.78441406 32.84402344 -14.56882813 32.68804687 -13.31640625 32.52734375 C-11.73180663 32.33044084 -10.14716922 32.13384191 -8.5625 31.9375 C-7.76005859 31.83373047 -6.95761719 31.72996094 -6.13085938 31.62304688 C-4.09192132 31.37355657 -2.04604939 31.18219682 0 31 C1 32 1 32 1.09765625 34.72265625 C1.08605469 35.82480469 1.07445312 36.92695312 1.0625 38.0625 C1.05347656 39.16722656 1.04445312 40.27195313 1.03515625 41.41015625 C1.02355469 42.26480469 1.01195312 43.11945313 1 44 C-9.60286047 46.21970453 -20.2044737 46.59463439 -31 47 C-31.83351684 39.2923426 -32.15475079 31.68758175 -32.125 23.9375 C-32.12886719 22.92623047 -32.13273438 21.91496094 -32.13671875 20.87304688 C-32.12854067 14.52276741 -31.76440911 8.30419859 -31 2 C-9.55734175 -0.69537343 -9.55734175 -0.69537343 0 0 Z " fill="#010101" transform="translate(215,41)"/>
<path d="M0 0 C4.24404412 3.88026891 7.10917547 8.04254346 10 13 C10.09087891 11.82630859 10.09087891 11.82630859 10.18359375 10.62890625 C10.26738281 9.61699219 10.35117187 8.60507812 10.4375 7.5625 C10.51871094 6.55316406 10.59992188 5.54382812 10.68359375 4.50390625 C11 2 11 2 12 1 C16.29 1 20.58 1 25 1 C25 14.2 25 27.4 25 41 C17.44324324 43.51891892 17.44324324 43.51891892 14 42 C11.78519906 39.66642665 9.99877048 37.09032205 8.1875 34.4375 C7.68541016 33.72658203 7.18332031 33.01566406 6.66601562 32.28320312 C5.43127204 30.53104318 4.21391182 28.76665625 3 27 C2.67 32.28 2.34 37.56 2 43 C-2.29 43 -6.58 43 -11 43 C-11 29.8 -11 16.6 -11 3 C-7.37 2.01 -3.74 1.02 0 0 Z " fill="#1890C7" transform="translate(357,43)"/>
<path d="M0 0 C4.29 0 8.58 0 13 0 C15.28243736 11.41218678 15.74362808 27.1398312 9.6875 37.5 C6.29663339 42.29295515 2.53598694 45.07935147 -3 47 C-7.4929766 47.68918815 -11.91421786 47.93764518 -16.12890625 46.04296875 C-21.47722167 42.03462004 -23.37207863 36.27912528 -25 30 C-25.45229026 25.81177234 -25.42994008 21.7069646 -25.3125 17.5 C-25.30283203 16.43007813 -25.29316406 15.36015625 -25.28320312 14.2578125 C-25.17103152 6.51309455 -25.17103152 6.51309455 -24 3 C-19.71 2.34 -15.42 1.68 -11 1 C-10.95101562 2.3509375 -10.90203125 3.701875 -10.8515625 5.09375 C-10.77647494 6.89585144 -10.70092975 8.69793385 -10.625 10.5 C-10.5940625 11.386875 -10.563125 12.27375 -10.53125 13.1875 C-10.28680022 18.72836176 -9.53261755 23.66698933 -8 29 C-6.68 29 -5.36 29 -4 29 C-1.74621614 25.61932421 -1.63979987 24.01135524 -1.3671875 20.01953125 C-1.28339844 18.85615234 -1.19960937 17.69277344 -1.11328125 16.49414062 C-0.99533203 14.67172852 -0.99533203 14.67172852 -0.875 12.8125 C-0.78863281 11.58595703 -0.70226562 10.35941406 -0.61328125 9.09570312 C-0.40096817 6.0643441 -0.19946101 3.0322318 0 0 Z " fill="#010101" transform="translate(243,39)"/>
<path d="M0 0 C0 3.96 0 7.92 0 12 C-7.92 12.495 -7.92 12.495 -16 13 C-16 13.99 -16 14.98 -16 16 C-15.01 15.835 -14.02 15.67 -13 15.5 C-8.97267058 14.91525483 -5.06525377 14.92867976 -1 15 C-1 18.63 -1 22.26 -1 26 C-3.12471175 26.3351658 -5.24977905 26.66807829 -7.375 27 C-8.55835938 27.185625 -9.74171875 27.37125 -10.9609375 27.5625 C-14 28 -14 28 -16 28 C-16 28.66 -16 29.32 -16 30 C-14.5459375 29.7525 -14.5459375 29.7525 -13.0625 29.5 C-8.6916256 28.8640736 -4.41132946 28.93213339 0 29 C0 32.63 0 36.26 0 40 C-2.70934476 41.35467238 -5.07775936 41.32320743 -8.1015625 41.53515625 C-9.91914063 41.66567383 -9.91914063 41.66567383 -11.7734375 41.79882812 C-13.04445313 41.88583984 -14.31546875 41.97285156 -15.625 42.0625 C-16.90375 42.15337891 -18.1825 42.24425781 -19.5 42.33789062 C-22.66641994 42.56237562 -25.83306591 42.78290923 -29 43 C-29.02464705 37.32169922 -29.04283462 31.64342931 -29.05493164 25.96508789 C-29.05997256 24.03181415 -29.06680519 22.09854424 -29.07543945 20.1652832 C-29.08751565 17.39273128 -29.09323057 14.62022959 -29.09765625 11.84765625 C-29.10281754 10.97786636 -29.10797882 10.10807648 -29.11329651 9.21192932 C-29.11349185 7.14094186 -29.06208168 5.07005676 -29 3 C-26.86985565 0.86985565 -22.51052746 1.25359047 -19.5625 0.9375 C-18.33974365 0.80335693 -18.33974365 0.80335693 -17.09228516 0.66650391 C-11.36318061 0.06841683 -5.76317501 -0.18590887 0 0 Z " fill="#1A90C6" transform="translate(413,44)"/>
<path d="M0 0 C-0.30798326 1.48011371 -0.621518 2.95907325 -0.9375 4.4375 C-1.19853516 5.67306641 -1.19853516 5.67306641 -1.46484375 6.93359375 C-2 9 -2 9 -3 10 C-5.35313555 10.07271741 -7.70833668 10.08370868 -10.0625 10.0625 C-11.35285156 10.05347656 -12.64320313 10.04445313 -13.97265625 10.03515625 C-14.97167969 10.02355469 -15.97070312 10.01195312 -17 10 C-17 10.66 -17 11.32 -17 12 C-15.824375 11.938125 -14.64875 11.87625 -13.4375 11.8125 C-9.03780829 11.82810174 -5.86712697 12.80104545 -2 15 C1.2542647 18.56919354 1.52176843 22.13160939 1.3515625 26.7890625 C0.60806761 31.46481926 -2.14181199 34.20617609 -5.5 37.3125 C-10.87506055 40.94066587 -17.33015582 40.59571743 -23.55078125 39.5859375 C-29.73592799 38.26407201 -29.73592799 38.26407201 -31 37 C-30.9140625 35.00390625 -30.9140625 35.00390625 -30.625 32.5625 C-30.53476562 31.75941406 -30.44453125 30.95632812 -30.3515625 30.12890625 C-30 28 -30 28 -29 26 C-23.72 26 -18.44 26 -13 26 C-13 25.67 -13 25.34 -13 25 C-13.73605469 24.96261719 -14.47210938 24.92523438 -15.23046875 24.88671875 C-25.31774313 24.20712695 -25.31774313 24.20712695 -29 21 C-31.72004917 16.53757059 -31.65819961 12.0809799 -31 7 C-24.68671755 -5.40109053 -11.47384161 -5.29561921 0 0 Z " fill="#1A90C7" transform="translate(446,47)"/>
<path d="M0 0 C0.05447047 1.41623216 0.09300508 2.83308191 0.125 4.25 C0.14820313 5.03890625 0.17140625 5.8278125 0.1953125 6.640625 C0 9 0 9 -2 13 C-6.455 13.495 -6.455 13.495 -11 14 C-11.33 22.91 -11.66 31.82 -12 41 C-14 42 -14 42 -25 42 C-25 33.09 -25 24.18 -25 15 C-28.63 15 -32.26 15 -36 15 C-36 11.04 -36 7.08 -36 3 C-32.52569346 1.26284673 -28.58086953 1.31498422 -24.75 0.9375 C-23.85571289 0.84807129 -22.96142578 0.75864258 -22.04003906 0.66650391 C-14.66702943 -0.02644813 -7.40660667 -0.22072669 0 0 Z " fill="#1890C7" transform="translate(485,43)"/>
<path d="M0 0 C2.475 0.99 2.475 0.99 5 2 C5 2.66 5 3.32 5 4 C7.475 4.99 7.475 4.99 10 6 C9.525625 6.433125 9.05125 6.86625 8.5625 7.3125 C6.76313043 9.02309613 6.76313043 9.02309613 6 12 C6.99 12.33 7.98 12.66 9 13 C9.62777344 13.23589844 10.25554687 13.47179687 10.90234375 13.71484375 C13.82116473 14.11162947 15.09572739 13.10266767 17.5625 11.5625 C21.70299728 9 21.70299728 9 25 9 C24.84660156 9.88042969 24.69320312 10.76085937 24.53515625 11.66796875 C24.05967195 15.20855847 23.7430717 18.43348686 24 22 C25.56706388 23.95551915 27.00202775 24.74407065 29.203125 25.90625 C32.39752474 27.85066723 33.04377317 30.53367774 34 34 C33.77260399 38.39632278 32.8169984 42.00260352 31 46 C28.46877793 44.73438896 28.45435756 43.89148658 27.4375 41.3125 C25.05640275 36.36232414 21.19769026 32.87572633 16 31 C13.24812181 31.74970153 13.24812181 31.74970153 11 33 C10.62875 31.948125 10.2575 30.89625 9.875 29.8125 C8.63789332 26.83029598 7.4392143 25.35670822 4.8125 23.5 C2 21 2 21 1.5625 17.375 C2 14 2 14 3 11 C2.46964172 9.01263229 2.46964172 9.01263229 1.5625 7 C0.43307164 4.32583777 0 2.97454511 0 0 Z " fill="#348FBA" transform="translate(98,66)"/>
<path d="M0 0 C1.5625 1.625 1.5625 1.625 3 4 C2.82490289 8.20233067 2.04335302 11.05809208 -1 14 C-3.29598193 15.08301035 -5.63477442 16.07796291 -8 17 C-9.03125 17.5775 -10.0625 18.155 -11.125 18.75 C-14.37419643 20.1626941 -15.7065568 20.18929893 -19 19 C-19.66 18.34 -20.32 17.68 -21 17 C-20.90234375 15.046875 -20.90234375 15.046875 -20 13 C-18.00390625 11.515625 -18.00390625 11.515625 -15.5625 10.25 C-14.75941406 9.82203125 -13.95632812 9.3940625 -13.12890625 8.953125 C-11 8 -11 8 -9 8 C-9 7.34 -9 6.68 -9 6 C-7.04109119 4.60699818 -5.0360882 3.27754554 -3 2 C-2.01 1.34 -1.02 0.68 0 0 Z " fill="#78909A" transform="translate(125,61)"/>
<path d="M0 0 C4.35225349 1.14386149 8.03338986 2.17838138 11.5 5.125 C13.83986179 9.6097351 14.81279834 14.18607156 13.3828125 19.13671875 C12.5625 21.0625 12.5625 21.0625 11 24 C8.46645752 22.73322876 8.30198565 21.74370327 7.1875 19.1875 C5.36844219 15.38032696 3.39412395 13.54559296 0 11 C-1.39355764 9.04148656 -2.74282547 7.04872887 -4 5 C-3.01 4.34 -2.02 3.68 -1 3 C-0.67 2.01 -0.34 1.02 0 0 Z " fill="#2AB6E4" transform="translate(118,88)"/>
<path d="M0 0 C-0.33 4.62 -0.66 9.24 -1 14 C-2.32 14 -3.64 14 -5 14 C-5 14.99 -5 15.98 -5 17 C-5.99 17.66 -6.98 18.32 -8 19 C-7.01 20.32 -6.02 21.64 -5 23 C-7.64 22.34 -10.28 21.68 -13 21 C-13.36256858 19.5437328 -13.71479793 18.08488815 -14.0625 16.625 C-14.35833984 15.40683594 -14.35833984 15.40683594 -14.66015625 14.1640625 C-15 12 -15 12 -14 10 C-13.01 9.67 -12.02 9.34 -11 9 C-11 8.01 -11 7.02 -11 6 C-10.01 6 -9.02 6 -8 6 C-8 5.01 -8 4.02 -8 3 C-5.11165997 0.89229241 -3.61537605 0 0 0 Z " fill="#1792CA" transform="translate(123,75)"/>
<path d="M0 0 C1.09570312 0.00902344 2.19140625 0.01804687 3.3203125 0.02734375 C4.16335938 0.03894531 5.00640625 0.05054687 5.875 0.0625 C5.875 0.3925 5.875 0.7225 5.875 1.0625 C-0.065 1.5575 -0.065 1.5575 -6.125 2.0625 C-6.125 2.7225 -6.125 3.3825 -6.125 4.0625 C-4.6709375 3.815 -4.6709375 3.815 -3.1875 3.5625 C1.1833744 2.9265736 5.46367054 2.99463339 9.875 3.0625 C9.875 6.6925 9.875 10.3225 9.875 14.0625 C3.79695215 17.10152392 -4.50193443 16.18694173 -11.125 16.0625 C-11.125 15.4025 -11.125 14.7425 -11.125 14.0625 C-5.185 14.0625 0.755 14.0625 6.875 14.0625 C6.875 13.0725 6.875 12.0825 6.875 11.0625 C5.885 11.3925 4.895 11.7225 3.875 12.0625 C3.545 11.4025 3.215 10.7425 2.875 10.0625 C0.85036745 9.41036708 0.85036745 9.41036708 -1.125 9.0625 C-1.125 8.0725 -1.125 7.0825 -1.125 6.0625 C-2.115 6.0625 -3.105 6.0625 -4.125 6.0625 C-4.125 6.7225 -4.125 7.3825 -4.125 8.0625 C-6.125 7.0625 -6.125 7.0625 -7.25 4 C-7.683125 2.5459375 -7.683125 2.5459375 -8.125 1.0625 C-5.36047967 -0.31976016 -3.0788637 -0.03275387 0 0 Z " fill="#2A8EBC" transform="translate(403.125,69.9375)"/>
<path d="M0 0 C0 0.66 0 1.32 0 2 C-6.6 2.33 -13.2 2.66 -20 3 C-20 5.97 -20 8.94 -20 12 C-14.555 11.505 -14.555 11.505 -9 11 C-9.33 12.32 -9.66 13.64 -10 15 C-9.34 15.33 -8.68 15.66 -8 16 C-8.66 16 -9.32 16 -10 16 C-10 23.59 -10 31.18 -10 39 C-6.7 39.33 -3.4 39.66 0 40 C0 40.33 0 40.66 0 41 C-3.63 41 -7.26 41 -11 41 C-11 32.09 -11 23.18 -11 14 C-14.63 14 -18.26 14 -22 14 C-22 10.04 -22 6.08 -22 2 C-15.71471637 -1.14264181 -6.86485718 -0.11548358 0 0 Z " fill="#398EB3" transform="translate(471,44)"/>
<path d="M0 0 C0.99 0.33 1.98 0.66 3 1 C2.84152588 1.50305664 2.68305176 2.00611328 2.51977539 2.52441406 C1.81633378 5.87476536 1.7648616 9.19970003 1.68359375 12.609375 C1.66281265 13.33618469 1.64203156 14.06299438 1.62062073 14.81182861 C1.55544488 17.12445991 1.4963896 19.43720093 1.4375 21.75 C1.39428434 23.32162575 1.35066908 24.89324056 1.30664062 26.46484375 C1.19979644 30.30978453 1.09843976 34.15483524 1 38 C3.97 38 6.94 38 10 38 C10.04898437 36.94039062 10.09796875 35.88078125 10.1484375 34.7890625 C10.22346709 33.40101503 10.29901485 32.01299549 10.375 30.625 C10.42140625 29.57699219 10.42140625 29.57699219 10.46875 28.5078125 C10.7734375 23.2265625 10.7734375 23.2265625 13 21 C14.9375 21.8125 14.9375 21.8125 17 23 C17.33 23.99 17.66 24.98 18 26 C18.66 26.33 19.32 26.66 20 27 C19.67 28.32 19.34 29.64 19 31 C17.35 28.69 15.7 26.38 14 24 C13.67 29.28 13.34 34.56 13 40 C8.71 40 4.42 40 0 40 C0 26.8 0 13.6 0 0 Z " fill="#378CB1" transform="translate(346,46)"/>
<path d="M0 0 C4.29 0 8.58 0 13 0 C13 13.2 13 26.4 13 40 C10.03 40.495 10.03 40.495 7 41 C7 40.34 7 39.68 7 39 C9.475 38.505 9.475 38.505 12 38 C11.67 26.12 11.34 14.24 11 2 C7.7 2.33 4.4 2.66 1 3 C1 6.63 1 10.26 1 14 C-0.32 14 -1.64 14 -3 14 C-2.67 13.34 -2.34 12.68 -2 12 C-1.68744353 9.14792222 -1.48962518 6.29503146 -1.28125 3.43359375 C-1 1 -1 1 0 0 Z " fill="#348EB7" transform="translate(369,44)"/>
<path d="M0 0 C-0.30798326 1.48011371 -0.621518 2.95907325 -0.9375 4.4375 C-1.19853516 5.67306641 -1.19853516 5.67306641 -1.46484375 6.93359375 C-2 9 -2 9 -3 10 C-4.99958364 10.04080783 -7.00045254 10.04254356 -9 10 C-8.01 9.67 -7.02 9.34 -6 9 C-6.33 7.35 -6.66 5.7 -7 4 C-6.34 4 -5.68 4 -5 4 C-5 3.01 -5 2.02 -5 1 C-11.9235749 -0.73089372 -18.33194708 -0.53386011 -25 2 C-25.99 3.485 -25.99 3.485 -27 5 C-27.66 5 -28.32 5 -29 5 C-27.60415208 1.62670085 -26.07634389 -0.04232662 -23 -2 C-15.22350709 -4.5921643 -7.29035718 -3.36478024 0 0 Z " fill="#288DB6" transform="translate(446,47)"/>
<path d="M0 0 C1.32 0.33 2.64 0.66 4 1 C4 1.66 4 2.32 4 3 C4.66 3.33 5.32 3.66 6 4 C5.814375 4.804375 5.62875 5.60875 5.4375 6.4375 C5.2209375 7.7059375 5.2209375 7.7059375 5 9 C5.33 9.33 5.66 9.66 6 10 C6.04063832 11.66617115 6.042721 13.33388095 6 15 C7.32 15.33 8.64 15.66 10 16 C8.35 16.66 6.7 17.32 5 18 C4.62875 16.948125 4.2575 15.89625 3.875 14.8125 C2.63696333 11.84001581 1.39439954 10.28548358 -1.1875 8.375 C-4 6 -4 6 -4.375 3.1875 C-4.25125 2.465625 -4.1275 1.74375 -4 1 C-1 2 -1 2 0 3 C0 2.01 0 1.02 0 0 Z " fill="#1586BC" transform="translate(104,81)"/>
<path d="M0 0 C7.23842593 0.36805556 7.23842593 0.36805556 10.9375 3.4375 C14.48274426 7.84219741 14.58913231 11.47197512 14 17 C12.5 19.5625 12.5 19.5625 11 21 C10.67 20.01 10.34 19.02 10 18 C10.66 18 11.32 18 12 18 C12 15.03 12 12.06 12 9 C10.68 9.33 9.36 9.66 8 10 C4.67098753 7.78065836 4.24976756 6.65316671 3 3 C2.01 3 1.02 3 0 3 C0 2.01 0 1.02 0 0 Z " fill="#298DB9" transform="translate(433,59)"/>
<path d="M0 0 C0.33 0.99 0.66 1.98 1 3 C1.66 3 2.32 3 3 3 C2.67 4.32 2.34 5.64 2 7 C6.455 7.99 6.455 7.99 11 9 C11.33 10.65 11.66 12.3 12 14 C11.34 14 10.68 14 10 14 C10 13.01 10 12.02 10 11 C8.68 11 7.36 11 6 11 C6 11.66 6 12.32 6 13 C5.01 13 4.02 13 3 13 C3 13.99 3 14.98 3 16 C3.99 16.33 4.98 16.66 6 17 C5.34 17.33 4.68 17.66 4 18 C-0.92937918 13.22963305 -0.92937918 13.22963305 -1.1328125 9.6875 C-1.13023437 8.800625 -1.12765625 7.91375 -1.125 7 C-1.12757813 6.113125 -1.13015625 5.22625 -1.1328125 4.3125 C-1 2 -1 2 0 0 Z " fill="#278EBE" transform="translate(416,52)"/>
<path d="M0 0 C2.97 0 5.94 0 9 0 C9 0.33 9 0.66 9 1 C6.36 1 3.72 1 1 1 C1 1.99 1 2.98 1 4 C1.99 3.835 2.98 3.67 4 3.5 C8.02732942 2.91525483 11.93474623 2.92867976 16 3 C16 6.63 16 10.26 16 14 C15.67 14 15.34 14 15 14 C15 10.7 15 7.4 15 4 C13.35 4.33 11.7 4.66 10 5 C10 6.65 10 8.3 10 10 C9.01 10 8.02 10 7 10 C6.67 9.01 6.34 8.02 6 7 C5.34 6.67 4.68 6.34 4 6 C3.67 7.32 3.34 8.64 3 10 C1.35 10 -0.3 10 -2 10 C-2 8.35 -2 6.7 -2 5 C-1.34 5 -0.68 5 0 5 C0 3.35 0 1.7 0 0 Z " fill="#2F8FBA" transform="translate(396,56)"/>
<path d="M0 0 C8.25 0 16.5 0 25 0 C25.66 1.32 26.32 2.64 27 4 C26.67 4.99 26.34 5.98 26 7 C24.5 5.625 24.5 5.625 23 4 C23 3.34 23 2.68 23 2 C17.06 2 11.12 2 5 2 C5.33 4.31 5.66 6.62 6 9 C1.125 4.5 1.125 4.5 0 0 Z " fill="#3189B0" transform="translate(78,26)"/>
<path d="M0 0 C1.5625 1.625 1.5625 1.625 3 4 C2.82495637 8.20104705 1.93059323 10.95218304 -1 14 C-1.66 14 -2.32 14 -3 14 C-3 12.68 -3 11.36 -3 10 C-4.65 10.66 -6.3 11.32 -8 12 C-7.01 10.35 -6.02 8.7 -5 7 C-6.32 7.33 -7.64 7.66 -9 8 C-9 7.34 -9 6.68 -9 6 C-7.04109119 4.60699818 -5.0360882 3.27754554 -3 2 C-2.01 1.34 -1.02 0.68 0 0 Z " fill="#558399" transform="translate(125,61)"/>
<path d="M0 0 C3 1 3 1 4.75 4.125 C6.67041687 9.03161484 5.69553629 13.07704673 3.9375 17.9375 C3.4734375 18.9584375 3.4734375 18.9584375 3 20 C-0.11422506 18.44288747 -0.7266333 16.15309849 -2 13 C-1.9375 10.3125 -1.9375 10.3125 -1 8 C1.0625 6.1875 1.0625 6.1875 3 5 C2.01 4.34 1.02 3.68 0 3 C0 2.01 0 1.02 0 0 Z " fill="#49CDEC" transform="translate(126,92)"/>
<path d="M0 0 C0.33 0 0.66 0 1 0 C1.21225012 6.57975358 0.73300103 12.62458017 -1 19 C-1.33 19.33 -1.66 19.66 -2 20 C-2.20604085 21.32781878 -2.3662959 22.66295895 -2.5 24 C-2.88888889 27.88888889 -2.88888889 27.88888889 -4 29 C-4.23427778 31.01594582 -4.41336124 33.038474 -4.5625 35.0625 C-4.64628906 36.16722656 -4.73007813 37.27195313 -4.81640625 38.41015625 C-4.87699219 39.26480469 -4.93757813 40.11945313 -5 41 C-6.485 41.495 -6.485 41.495 -8 42 C-7.36425758 32.92052371 -5.43573776 24.22700653 -3.4375 15.375 C-3.1042863 13.87902452 -2.77159993 12.38293147 -2.43945312 10.88671875 C-1.6323732 7.25643787 -0.81818261 3.62779682 0 0 Z " fill="#3183AD" transform="translate(84,35)"/>
<path d="M0 0 C0 3.96 0 7.92 0 12 C-2.64 12 -5.28 12 -8 12 C-7.67 11.34 -7.34 10.68 -7 10 C-5.35 10 -3.7 10 -2 10 C-2 7.36 -2 4.72 -2 2 C-10.58 2.33 -19.16 2.66 -28 3 C-28 2.67 -28 2.34 -28 2 C-9.17995444 -0.29612756 -9.17995444 -0.29612756 0 0 Z " fill="#368CB2" transform="translate(413,44)"/>
<path d="M0 0 C0.33 0 0.66 0 1 0 C1 2.97 1 5.94 1 9 C2.14339844 8.9278125 3.28679687 8.855625 4.46484375 8.78125 C5.95572814 8.68748369 7.44661361 8.59373457 8.9375 8.5 C9.69224609 8.45230469 10.44699219 8.40460938 11.22460938 8.35546875 C15.82051941 8.06693628 19.46285439 8.2277199 24 9 C20.98665752 12.01334248 17.95553961 12.1497674 13.8125 12.1875 C2.07066583 12.07066583 2.07066583 12.07066583 -1 9 C-0.91062197 7.47480724 -0.75462854 5.95318071 -0.5625 4.4375 C-0.46066406 3.61121094 -0.35882813 2.78492187 -0.25390625 1.93359375 C-0.17011719 1.29550781 -0.08632813 0.65742187 0 0 Z " fill="#2A8AB5" transform="translate(416,75)"/>
<path d="M0 0 C0.66 0.33 1.32 0.66 2 1 C2 1.99 2 2.98 2 4 C2.99 4.66 3.98 5.32 5 6 C4.67 6.99 4.34 7.98 4 9 C3.01 9 2.02 9 1 9 C-0.68798827 10.43750191 -0.68798827 10.43750191 -2 12 C-3.65 10.35 -5.3 8.7 -7 7 C-5.68 6.67 -4.36 6.34 -3 6 C-3.33 5.34 -3.66 4.68 -4 4 C-2.68 2.68 -1.36 1.36 0 0 Z " fill="#30C2E9" transform="translate(125,91)"/>
<path d="M0 0 C4.29 0 8.58 0 13 0 C13.25 8.5 13.25 8.5 11 13 C8.03 13 5.06 13 2 13 C2 12.34 2 11.68 2 11 C3.670625 10.7215625 3.670625 10.7215625 5.375 10.4375 C6.57125 9.963125 7.7675 9.48875 9 9 C10.54086322 5.48599332 10.54086322 5.48599332 11 2 C7.37 1.67 3.74 1.34 0 1 C0 0.67 0 0.34 0 0 Z " fill="#318DB5" transform="translate(472,43)"/>
<path d="M0 0 C1.32 0.66 2.64 1.32 4 2 C3.6875 3.875 3.6875 3.875 3 6 C2.01 6.66 1.02 7.32 0 8 C0.99 9.32 1.98 10.64 3 12 C0.36 11.34 -2.28 10.68 -5 10 C-5 8.35 -5 6.7 -5 5 C-4.01 4.67 -3.02 4.34 -2 4 C-0.79117904 1.99983534 -0.79117904 1.99983534 0 0 Z " fill="#229DCE" transform="translate(115,86)"/>
<path d="M0 0 C-0.33 4.62 -0.66 9.24 -1 14 C-1.99 13.67 -2.98 13.34 -4 13 C-4.33 10.03 -4.66 7.06 -5 4 C-5.99 3.67 -6.98 3.34 -8 3 C-3.375 0 -3.375 0 0 0 Z " fill="#2D90BB" transform="translate(123,75)"/>
<path d="M0 0 C0.763125 0.350625 1.52625 0.70125 2.3125 1.0625 C5.04759379 2.32360884 5.04759379 2.32360884 8 1 C8.66 1.33 9.32 1.66 10 2 C9.67 3.32 9.34 4.64 9 6 C8.34 6 7.68 6 7 6 C7 6.66 7 7.32 7 8 C7.99 8.33 8.98 8.66 10 9 C7.8125 8.9375 7.8125 8.9375 5 8 C0 2.5 0 2.5 0 0 Z " fill="#268CBA" transform="translate(366,77)"/>
<path d="M0 0 C2.4375 0.8125 2.4375 0.8125 5 2 C5.33 2.99 5.66 3.98 6 5 C6.66 5.33 7.32 5.66 8 6 C7.67 7.32 7.34 8.64 7 10 C6.47599609 9.24203125 6.47599609 9.24203125 5.94140625 8.46875 C5.48636719 7.8190625 5.03132813 7.169375 4.5625 6.5 C4.11003906 5.8503125 3.65757812 5.200625 3.19140625 4.53125 C2.79824219 4.0259375 2.40507812 3.520625 2 3 C1.67 3 1.34 3 1 3 C0.67 7.95 0.34 12.9 0 18 C-0.33 18 -0.66 18 -1 18 C-1.02690844 15.37493198 -1.04679404 12.75013827 -1.0625 10.125 C-1.07087891 9.37863281 -1.07925781 8.63226563 -1.08789062 7.86328125 C-1.11328125 2.2265625 -1.11328125 2.2265625 0 0 Z " fill="#2A8EBA" transform="translate(358,67)"/>
<path d="M0 0 C2.97 0 5.94 0 9 0 C9 0.33 9 0.66 9 1 C6.36 1 3.72 1 1 1 C1 2.32 1 3.64 1 5 C1.99 5.33 2.98 5.66 4 6 C3.67 7.32 3.34 8.64 3 10 C1.35 10 -0.3 10 -2 10 C-2 8.35 -2 6.7 -2 5 C-1.34 5 -0.68 5 0 5 C0 3.35 0 1.7 0 0 Z " fill="#2590C1" transform="translate(396,56)"/>
<path d="M0 0 C2.475 0.99 2.475 0.99 5 2 C5 2.66 5 3.32 5 4 C5.99 4.33 6.98 4.66 8 5 C7.01 5.495 7.01 5.495 6 6 C5.67 6.99 5.34 7.98 5 9 C4.01 8.67 3.02 8.34 2 8 C0.5522078 5.10441559 0 3.25811062 0 0 Z " fill="#288CBF" transform="translate(98,66)"/>
<path d="M0 0 C4.95 0.99 4.95 0.99 10 2 C10 2.66 10 3.32 10 4 C7.69 4.33 5.38 4.66 3 5 C3 5.99 3 6.98 3 8 C2.01 7.67 1.02 7.34 0 7 C0 4.69 0 2.38 0 0 Z " fill="#258EBB" transform="translate(426,52)"/>
<path d="M0 0 C2.0625 0.4375 2.0625 0.4375 4 1 C1.87380903 3.33881007 0.00223508 4.94038762 -3 6 C-5.75 5.625 -5.75 5.625 -8 5 C-7 3 -7 3 -4 1.9375 C-2.515 1.4734375 -2.515 1.4734375 -1 1 C-0.67 0.67 -0.34 0.34 0 0 Z " fill="#99B0C0" transform="translate(114,75)"/>
<path d="M0 0 C0.33 0.66 0.66 1.32 1 2 C1.66 2 2.32 2 3 2 C3 1.34 3 0.68 3 0 C3.99 0 4.98 0 6 0 C5.67 1.32 5.34 2.64 5 4 C-0.28 3.67 -5.56 3.34 -11 3 C-7.09567131 1.04783565 -4.27786748 0.49360009 0 0 Z " fill="#258EBF" transform="translate(433,68)"/>
<path d="M0 0 C-0.25 1.875 -0.25 1.875 -1 4 C-3.58152302 5.72101535 -4.84918025 6 -8 6 C-7.6875 4.125 -7.6875 4.125 -7 2 C-4 0 -4 0 0 0 Z " fill="#9FB9C8" transform="translate(112,72)"/>
<path d="M0 0 C0.5625 1.9375 0.5625 1.9375 1 4 C0.67 4.33 0.34 4.66 0 5 C-0.23427778 7.01594582 -0.41336124 9.038474 -0.5625 11.0625 C-0.68818359 12.71958984 -0.68818359 12.71958984 -0.81640625 14.41015625 C-0.87699219 15.26480469 -0.93757813 16.11945313 -1 17 C-1.99 17.33 -2.98 17.66 -4 18 C-3.61020794 11.44074057 -2.57886807 6.05473373 0 0 Z " fill="#2C8AB3" transform="translate(80,59)"/>
<path d="M0 0 C0.33 0 0.66 0 1 0 C1 4.95 1 9.9 1 15 C-0.32 15.33 -1.64 15.66 -3 16 C-2.68954268 14.0830014 -2.37655329 12.16641277 -2.0625 10.25 C-1.88847656 9.18265625 -1.71445313 8.1153125 -1.53515625 7.015625 C-1.11295829 4.63652407 -0.62797116 2.33084789 0 0 Z " fill="#2C80A2" transform="translate(75,77)"/>
<path d="M0 0 C-0.11362262 1.4800841 -0.24122908 2.95910074 -0.375 4.4375 C-0.44460937 5.26121094 -0.51421875 6.08492188 -0.5859375 6.93359375 C-0.72257812 7.61550781 -0.85921875 8.29742187 -1 9 C-1.99 9.495 -1.99 9.495 -3 10 C-3.66 7.69 -4.32 5.38 -5 3 C-2.25 0 -2.25 0 0 0 Z " fill="#050D12" transform="translate(72,84)"/>
<path d="M0 0 C1.32 0.66 2.64 1.32 4 2 C3.67 2.66 3.34 3.32 3 4 C2.34 4 1.68 4 1 4 C0.67 5.65 0.34 7.3 0 9 C-1.32 7.68 -2.64 6.36 -4 5 C-3.01 4.34 -2.02 3.68 -1 3 C-0.67 2.01 -0.34 1.02 0 0 Z " fill="#26AADA" transform="translate(118,88)"/>
<path d="M0 0 C1.5625 1.625 1.5625 1.625 3 4 C2.9375 7.125 2.9375 7.125 2 10 C-0.0625 11.375 -0.0625 11.375 -2 12 C-1.649375 11.113125 -1.29875 10.22625 -0.9375 9.3125 C0.02652412 5.90628144 -0.14027137 4.34338913 -1 1 C-0.67 0.67 -0.34 0.34 0 0 Z " fill="#4E606B" transform="translate(125,61)"/>
<path d="M0 0 C0.33 0 0.66 0 1 0 C1 2.97 1 5.94 1 9 C6.445 8.505 6.445 8.505 12 8 C11.67 9.32 11.34 10.64 11 12 C11.66 12.33 12.32 12.66 13 13 C12.01 13 11.02 13 10 13 C10 12.01 10 11.02 10 10 C6.7 10 3.4 10 0 10 C0 6.7 0 3.4 0 0 Z " fill="#258EBC" transform="translate(450,47)"/>
<path d="M0 0 C1.32 0 2.64 0 4 0 C4 1.65 4 3.3 4 5 C5.32 5.33 6.64 5.66 8 6 C6.35 6.66 4.7 7.32 3 8 C2.01 5.36 1.02 2.72 0 0 Z " fill="#2D8CB0" transform="translate(106,91)"/>
<path d="M0 0 C3 1 3 1 4.1875 3.0625 C4.455625 3.701875 4.72375 4.34125 5 5 C4.01 6.485 4.01 6.485 3 8 C1.5 6.8125 1.5 6.8125 0 5 C-0.1875 2.3125 -0.1875 2.3125 0 0 Z " fill="#2276AC" transform="translate(100,82)"/>
<path d="M0 0 C0.66 0.33 1.32 0.66 2 1 C1.625 3.9375 1.625 3.9375 1 7 C0.01 7.495 0.01 7.495 -1 8 C-2.13350534 10.01669827 -2.13350534 10.01669827 -3 12 C-2.88541307 10.56163249 -2.75790884 9.12429034 -2.625 7.6875 C-2.55539063 6.88699219 -2.48578125 6.08648437 -2.4140625 5.26171875 C-2 3 -2 3 0 0 Z " fill="#2B8EBB" transform="translate(115,37)"/>
<path d="M0 0 C2.31 0 4.62 0 7 0 C5.71034824 1.37562854 4.37310707 2.70766393 3 4 C2.34 4 1.68 4 1 4 C0.67 2.68 0.34 1.36 0 0 Z " fill="#08080A" transform="translate(70,95)"/>
<path d="M0 0 C0.66 0.33 1.32 0.66 2 1 C1.67 2.32 1.34 3.64 1 5 C-0.32 5.33 -1.64 5.66 -3 6 C-2.67 5.01 -2.34 4.02 -2 3 C-2.66 2.67 -3.32 2.34 -4 2 C-2.125 0.9375 -2.125 0.9375 0 0 Z " fill="#86A1AE" transform="translate(114,69)"/>
<path d="M0 0 C0.99 0.33 1.98 0.66 3 1 C2.25 5.75 2.25 5.75 0 8 C-0.38063221 5.6739143 -0.71269945 3.33944736 -1 1 C-0.67 0.67 -0.34 0.34 0 0 Z " fill="#667F86" transform="translate(123,64)"/>
<path d="M0 0 C0.99 0.33 1.98 0.66 3 1 C2.34 3.97 1.68 6.94 1 10 C0.67 10 0.34 10 0 10 C0 6.7 0 3.4 0 0 Z " fill="#3C8CAF" transform="translate(443,46)"/>
<path d="M0 0 C0 0.66 0 1.32 0 2 C-3.3 2 -6.6 2 -10 2 C-3 -1.5 -3 -1.5 0 0 Z " fill="#318EB0" transform="translate(359,44)"/>
</svg>
